<svg width="75" height="74" viewBox="0 0 75 74" fill="none" xmlns="http://www.w3.org/2000/svg">
<path d="M47.193 70.0995C45.894 69.1567 45.7545 67.7403 45.7545 67.7403L45.267 64.6656H29.7315L29.2425 67.7381C29.2425 67.7381 29.1068 69.156 27.807 70.0987C26.508 71.0415 25.4828 71.851 26.508 71.9887C27.4958 72.1204 36.813 72.0005 37.5 71.9887C38.1885 72.0005 47.5035 72.1204 48.4905 71.9887C49.515 71.8525 48.489 71.0444 47.193 70.0995Z" fill="url(#paint0_linear)"/>
<path d="M19.9995 45.5382C24.15 45.5063 24.6668 44.5192 26.0198 40.4077C28.515 33.9194 39.7515 42.1068 32.7878 44.9484C25.824 47.7915 15.849 45.57 19.9995 45.5382Z" fill="url(#paint1_linear)"/>
<path d="M62.5575 2.77942C60.5415 1.17806 57.2062 1.9669 55.104 4.54062L33.8115 34.3893C31.7092 36.9622 31.7197 36.4709 33.7335 38.0708C35.7472 39.6721 35.262 39.7868 37.3642 37.2138L62.3962 10.3393C64.4985 7.76406 64.572 4.38004 62.5575 2.77942ZM57.0817 6.35214C57.0817 6.35214 56.7697 5.99472 55.7325 5.17628C57.288 2.6699 60.345 3.12944 60.345 3.12944C57.447 4.81812 57.0817 6.35214 57.0817 6.35214Z" fill="url(#paint2_linear)"/>
<path d="M72 12.8656H62.637L58.5007 17.3056H70.5007V52.8256H4.50075V17.3056H42.8932L46.0635 12.8656H3C1.34325 12.8656 0 14.1909 0 15.8256V58.7456C0 60.3803 1.34325 61.7056 3 61.7056H72C73.6568 61.7056 75 60.3803 75 58.7456V15.8256C75 14.1909 73.6568 12.8656 72 12.8656Z" fill="url(#paint3_linear)"/>
<defs>
<linearGradient id="paint0_linear" x1="37.499" y1="64.6656" x2="37.499" y2="72.0499" gradientUnits="userSpaceOnUse">
<stop stop-color="#0E5495"/>
<stop offset="1" stop-color="#064084"/>
</linearGradient>
<linearGradient id="paint1_linear" x1="27.0269" y1="37.9677" x2="27.0269" y2="46.3941" gradientUnits="userSpaceOnUse">
<stop stop-color="#0E5495"/>
<stop offset="1" stop-color="#064084"/>
</linearGradient>
<linearGradient id="paint2_linear" x1="48.1254" y1="1.95044" x2="48.1254" y2="39.2202" gradientUnits="userSpaceOnUse">
<stop stop-color="#0E5495"/>
<stop offset="1" stop-color="#064084"/>
</linearGradient>
<linearGradient id="paint3_linear" x1="37.5" y1="12.8656" x2="37.5" y2="61.7056" gradientUnits="userSpaceOnUse">
<stop stop-color="#0E5495"/>
<stop offset="1" stop-color="#064084"/>
</linearGradient>
</defs>
</svg>
