<svg width="49" height="79" viewBox="0 0 49 79" fill="none" xmlns="http://www.w3.org/2000/svg">
<path d="M41.65 0H7.35C3.29219 0 0 3.31738 0 7.40625V71.5938C0 75.6826 3.29219 79 7.35 79H41.65C45.7078 79 49 75.6826 49 71.5938V7.40625C49 3.31738 45.7078 0 41.65 0ZM24.5 74.0625C21.7897 74.0625 19.6 71.8561 19.6 69.125C19.6 66.3939 21.7897 64.1875 24.5 64.1875C27.2103 64.1875 29.4 66.3939 29.4 69.125C29.4 71.8561 27.2103 74.0625 24.5 74.0625ZM41.65 57.3984C41.65 58.4168 40.8231 59.25 39.8125 59.25H9.1875C8.17688 59.25 7.35 58.4168 7.35 57.3984V9.25781C7.35 8.23945 8.17688 7.40625 9.1875 7.40625H39.8125C40.8231 7.40625 41.65 8.23945 41.65 9.25781V57.3984Z" fill="url(#paint0_linear)"/>
<defs>
<linearGradient id="paint0_linear" x1="24.5" y1="0" x2="24.5" y2="79" gradientUnits="userSpaceOnUse">
<stop stop-color="#0E5495"/>
<stop offset="1" stop-color="#064084"/>
</linearGradient>
</defs>
</svg>
